<svg width="113" height="47" viewBox="0 0 113 47" xmlns="http://www.w3.org/2000/svg" xmlns:xlink="http://www.w3.org/1999/xlink"><title>Group 19</title><defs><path id="path-1" d="M.61.791h19.722V28H.609z"/><path id="path-3" d="M0 .791h20.008V28H0z"/></defs><g id="Page-1" stroke="none" stroke-width="1" fill="none" fill-rule="evenodd"><g id="Mobile_landingpage" transform="translate(-25 -15)"><g id="Group-5"><g id="Group-19" transform="translate(25 15)"><path d="M56.281 17C54.394 17 53 18.408 53 20.557 53 22.61 54.309 24 56.177 24c1.804 0 3.282-1.24 3.282-3.572 0-2.01-1.25-3.428-3.178-3.428zm-.041.712c1.519 0 2.254 1.408 2.254 2.758 0 1.537-.816 2.815-2.264 2.815-1.438 0-2.254-1.298-2.254-2.745 0-1.49.754-2.828 2.264-2.828zm5.293 6.176h.913V20.82h2.673v-.725h-2.673v-2.252h2.893v-.734h-3.806v6.778zm12.14-3.902h-2.745v-2.142h2.902v-.734h-3.815v6.778h3.975v-.735h-3.062v-2.442h2.745v-.725zm6.04 1.77l.754 2.132h.976L79.03 17.11h-1.1l-2.4 6.778h.943l.733-2.133h2.507zm-2.317-.684l.691-1.962c.137-.412.255-.824.356-1.227h.024c.104.393.208.796.365 1.237l.691 1.952h-2.127zm5.409 2.484c.379.241 1.123.444 1.803.444 1.668 0 2.477-.917 2.477-1.964 0-.993-.608-1.547-1.804-1.989-.976-.363-1.406-.673-1.406-1.307 0-.464.368-1.015 1.332-1.015.64 0 1.11.2 1.341.322l.252-.715c-.314-.173-.839-.332-1.563-.332-1.371 0-2.284.783-2.284 1.84 0 .956.714 1.53 1.866 1.92.955.354 1.332.715 1.332 1.347 0 .685-.544 1.156-1.478 1.156-.631 0-1.228-.2-1.637-.441l-.231.734zm7.341.332h.92v-6.034h2.16v-.744h-5.23v.744h2.15v6.034zm8.207-3.902h-2.747v-2.142h2.904v-.734h-3.815v6.778h3.973v-.735h-3.062v-2.442h2.747v-.725zm2.6 3.902h.913v-2.935h.86c.828.029 1.205.38 1.415 1.315.199.844.356 1.42.472 1.62h.943c-.145-.261-.314-.915-.545-1.86-.17-.705-.493-1.188-1.036-1.368v-.03c.742-.241 1.33-.834 1.33-1.73 0-.524-.2-.985-.556-1.288-.439-.38-1.068-.553-2.044-.553-.629 0-1.29.05-1.753.141v6.688zm.913-6.076c.148-.039.462-.078.904-.078.962.01 1.623.39 1.623 1.267 0 .773-.617 1.286-1.593 1.286h-.934v-2.475zm6.687 6.076v-2.896a43.17 43.17 0 0 0-.071-2.796l.03-.01c.358.734.83 1.508 1.322 2.264l2.243 3.438H113V17.11h-.86v2.835c0 1.056.02 1.881.106 2.786l-.023.01a18.758 18.758 0 0 0-1.267-2.2l-2.264-3.431h-.997v6.778h.858z" id="Fill-1" fill="#FEFEFE"/><path d="M54 35.94h.91v-3.116h2.666v-.737h-2.665v-2.291h2.884v-.744H54v6.888zm5.981 0h.908v-6.888h-.908v6.888zm4.452 0v-2.943a44.5 44.5 0 0 0-.073-2.841l.032-.01c.355.743.825 1.532 1.316 2.298l2.237 3.496h.92v-6.888h-.855v2.881c0 1.074.018 1.912.103 2.832l-.02.01a19.424 19.424 0 0 0-1.266-2.239l-2.258-3.484h-.993v6.888h.857zm6.91 0h3.92v-.746h-3.009v-6.142h-.91v6.888zm9.251-2.167l.752 2.167h.973l-2.405-6.888h-1.095l-2.396 6.888h.94l.732-2.167h2.5zm-2.31-.694l.692-1.994c.136-.419.249-.838.355-1.247h.02c.104.4.208.808.365 1.257l.691 1.984h-2.123zM85.1 35.94v-2.943c0-1.145-.021-1.974-.072-2.841l.03-.01c.355.743.825 1.532 1.319 2.298l2.236 3.496h.92v-6.888h-.857v2.881c0 1.074.02 1.912.103 2.832l-.02.01a19.731 19.731 0 0 0-1.264-2.239l-2.26-3.484h-.993v6.888h.858zm7.12-.02c.458.05 1.003.08 1.65.08 1.37 0 2.456-.347 3.115-.99.66-.634 1.015-1.554 1.015-2.677 0-1.114-.367-1.912-.994-2.475-.615-.56-1.547-.858-2.852-.858-.722 0-1.381.062-1.934.144v6.777zm.908-6.124c.242-.05.597-.09 1.068-.09 1.923 0 2.863 1.032 2.852 2.656 0 1.86-1.056 2.924-3 2.924-.355 0-.69-.01-.92-.052v-5.438z" id="Fill-3" fill="#FEFEFE"/><path d="M53 6.11v3.993C53 12.207 54.102 13 55.562 13c1.546 0 2.7-.854 2.7-2.936V6.11h-.932v4.015c0 1.498-.677 2.162-1.735 2.162-.953 0-1.663-.644-1.663-2.162V6.11H53zm8.63 6.78V9.993a41 41 0 0 0-.075-2.797l.033-.01c.36.735.836 1.509 1.333 2.263l2.268 3.441h.932V6.11h-.869v2.838c0 1.055.021 1.88.105 2.785l-.02.01a18.977 18.977 0 0 0-1.283-2.204l-2.286-3.43H60.76v6.781h.869zm7 0h.922V6.11h-.923v6.78zm6.013 0l2.553-6.78h-.986l-1.207 3.349c-.315.885-.612 1.74-.815 2.526h-.021c-.192-.796-.456-1.621-.762-2.536l-1.111-3.34h-.995l2.328 6.781h1.016zm7.922-3.903h-2.774V6.844h2.933V6.11h-3.856v6.78h4.013v-.734h-3.09V9.712h2.774v-.725zm2.413 3.903h.923V9.952h.866c.838.029 1.22.383 1.43 1.318.2.844.361 1.42.476 1.62h.955c-.15-.261-.32-.915-.551-1.862-.168-.703-.498-1.186-1.046-1.367V9.63c.75-.241 1.342-.832 1.342-1.73 0-.522-.2-.984-.562-1.286-.444-.384-1.08-.554-2.065-.554-.635 0-1.3.05-1.768.141v6.69zm.923-6.075c.147-.041.464-.083.91-.083.974.01 1.642.396 1.642 1.27 0 .773-.626 1.286-1.611 1.286H85.9V6.815zm5.315 5.743c.38.242 1.133.442 1.822.442 1.681 0 2.497-.915 2.497-1.96 0-.998-.612-1.55-1.82-1.994-.985-.361-1.42-.674-1.42-1.308 0-.462.372-1.016 1.345-1.016a2.96 2.96 0 0 1 1.355.323l.255-.713c-.318-.17-.846-.332-1.577-.332-1.39 0-2.31.783-2.31 1.84 0 .957.72 1.528 1.885 1.921.965.354 1.345.715 1.345 1.35 0 .683-.55 1.154-1.494 1.154a3.39 3.39 0 0 1-1.652-.441l-.23.734zm6.502.332h.923V6.11h-.923v6.78zm4.709 0h.932V6.854h2.18V6.11h-5.284v.744h2.172v6.036zm7.18 0v-2.887L112 6.11h-1.049l-1.025 1.872c-.276.512-.52.954-.722 1.396h-.02a26.23 26.23 0 0 0-.71-1.396l-1.007-1.872h-1.047l2.257 3.903v2.877h.93z" id="Fill-5" fill="#FEFEFE"/><path d="M5 14.98V6c2.4.551 6.2 1.814 9.245 4.646C18.932 15.006 19 26 19 26s-1.64-3.805-4.646-6.432C11.293 16.891 7.492 15.598 5 14.98" id="Fill-7" fill="#FEFEFE"/><path d="M27.756 10.646C30.8 7.816 34.596 6.551 37 6v9.012c-2.485.628-6.278 1.92-9.353 4.556C24.572 22.202 23 26 23 26s.068-10.997 4.756-15.354" id="Fill-9" fill="#FEFEFE"/><g id="Group-13" transform="translate(22 19)"><mask id="mask-2" fill="#fff"><use xlink:href="#path-1"/></mask><path d="M20.332.873v15.162s-2.834.016-7.848 1.853C5.06 20.604.61 28 .61 28l1.385-12.313c.359-3.182 1.511-8.246 6.067-11.482C14.028-.035 20.331.873 20.331.873" id="Fill-11" fill="#FEFEFE" mask="url(#mask-2)"/></g><g id="Group-16" transform="translate(0 19)"><mask id="mask-4" fill="#fff"><use xlink:href="#path-3"/></mask><path d="M0 .873v15.162s2.874.016 7.96 1.853C15.494 20.604 20.009 28 20.009 28l-1.405-12.313c-.364-3.182-1.533-8.246-6.153-11.482C6.395-.035 0 .873 0 .873" id="Fill-14" fill="#FEFEFE" mask="url(#mask-4)"/></g><path d="M21.5 13s-.902-3.302-2.535-5.367C17.367 5.613 16 4.678 16 4.678L21.5 0 27 4.678s-1.44.934-2.965 2.955C22.449 9.733 21.5 13 21.5 13" id="Fill-17" fill="#FEFEFE"/></g></g></g></g></svg>
